<?xml version="1.0" encoding="utf-8"?>
<!-- Generator: Adobe Illustrator 18.1.1, SVG Export Plug-In . SVG Version: 6.00 Build 0)  -->
<!DOCTYPE svg PUBLIC "-//W3C//DTD SVG 1.1//EN" "http://www.w3.org/Graphics/SVG/1.1/DTD/svg11.dtd">
<svg version="1.1" id="Layer_1" xmlns="http://www.w3.org/2000/svg" xmlns:xlink="http://www.w3.org/1999/xlink" x="0px" y="0px"
	 viewBox="0 0 960 560" enable-background="new 0 0 960 560" xml:space="preserve">
<text transform="matrix(1 0 0 1 1025.2596 -417.0546)" fill="#4C5C68" font-family="'CaviarDreams'" font-size="107.9021">C</text>
<g>
	<text transform="matrix(1 0 0 1 1238.1494 -417.0544)" fill="#4C5C68" font-family="'CaviarDreams'" font-size="107.9021">C</text>
</g>
<text transform="matrix(1 0 0 1 1095.1212 -431.8078)" fill="#4C5C68" font-family="'CaviarDreams'" font-size="67.6823">lose</text>
<g>
	<text transform="matrix(1 0 0 1 1308.3643 -431.8071)" fill="#4C5C68" font-family="'CaviarDreams'" font-size="67.6823">ircle</text>
</g>
<g>
	<circle fill="#DCDCDD" stroke="#DCDCDD" stroke-width="18.5164" stroke-miterlimit="10" cx="189.5" cy="279.4" r="162.8"/>
	<path fill="none" stroke="#1985A1" stroke-width="18.5164" stroke-miterlimit="10" d="M307,391.9c-29.6,31-71.4,50.2-117.7,50.2
		c-89.8,0-162.8-72.8-162.8-162.8s73-162.6,162.9-162.6c46.1,0,87.7,19.1,117.2,49.9"/>
</g>
<g>
	<path fill="#4C5C68" d="M226.8,325l6.1,5.4c-13.9,12.6-30.3,19-49.1,19c-20.2,0-37.3-7.1-51.6-21.4c-14.1-14.1-21.4-31.4-21.4-51.6
		c0-20.1,7.1-37.3,21.4-51.5c14.1-14.3,31.4-21.4,51.6-21.4c18.8,0,35.1,6.4,49.1,19l-6.1,5.5c-12.2-10.9-26.6-16.3-43-16.3
		c-17.8,0-33.1,6.4-45.7,19c-12.6,12.6-19,27.9-19,45.7c0,18,6.4,33.2,19,45.8c12.6,12.6,27.9,19,45.7,19
		C200.3,341.3,214.7,335.9,226.8,325z"/>
	<path fill="#4C5C68" d="M254,205.4v142.4h-7.9V205.4H254z"/>
	<path fill="#4C5C68" d="M315.1,252.5c13.6,0,25,4.8,34.5,14.3c9.5,9.6,14.3,21.1,14.3,34.6c0,13.4-4.8,25-14.3,34.5
		c-9.5,9.6-21.1,14.3-34.5,14.3c-13.4,0-25-4.8-34.5-14.3c-9.6-9.6-14.3-21.1-14.3-34.5c0-13.6,4.8-25,14.3-34.6
		C290.2,257.3,301.7,252.5,315.1,252.5z M286.5,272.9c-7.9,7.9-11.9,17.4-11.9,28.6c0,11.2,4,20.6,11.9,28.6
		c7.9,7.9,17.4,11.7,28.6,11.7c11.2,0,20.6-4,28.6-11.7c7.9-7.9,11.9-17.4,11.9-28.6c0-11.2-4-20.6-11.9-28.6
		c-7.9-7.9-17.4-11.9-28.6-11.9C304.1,261,294.4,264.9,286.5,272.9z"/>
	<path fill="#4C5C68" d="M400.2,302.8c-6.8-3.7-11.6-6.8-14.1-9.5c-4.1-4.1-6.1-9.1-6.1-14.7c0-5.8,2-10.7,6.1-14.8
		c4.1-4.1,9.1-6.2,14.7-6.2c5.8,0,10.6,1.8,14.4,5.7c3.7,3.7,5.5,7.9,5.5,12.7v0.4l-6.9,2.8c-0.6-4.5-2-7.9-4.2-10.2
		s-5.1-3.4-8.8-3.4c-3.5,0-6.6,1.3-9.2,3.8c-2.5,2.5-3.8,5.7-3.8,9.2c0,3.5,1.3,6.6,3.8,9.2c1.4,1.4,4.7,3.7,9.5,6.8
		c7.6,4.1,13,7.8,16.1,11c5.1,5.1,7.5,11.2,7.5,18.2c0,7.2-2.5,13.4-7.5,18.5c-5.1,5.1-11.2,7.6-18.4,7.6s-13.3-2.5-18.4-7.6
		c-5.1-5.1-7.5-10.6-7.5-16.7l7.9-2c0,5.2,1.7,9.6,5.2,13c3.5,3.5,7.8,5.2,12.7,5.2s9.2-1.7,12.7-5.2c3.5-3.5,5.2-7.8,5.2-12.9
		c0-4.9-1.7-9.2-5.2-12.6C409.9,309.3,406,306.5,400.2,302.8z"/>
	<path fill="#4C5C68" d="M455.1,331.4c7.5,6.9,16.5,10.3,26.9,10.3c11.2,0,20.6-4,28.6-11.9c1-1,2-2,2.8-3.1l8.5,3
		c-1.6,2.1-3.3,4.2-5.2,6.1c-9.6,9.6-21.1,14.3-34.6,14.3c-13.4,0-25-4.8-34.5-14.3c-9.6-9.6-14.3-21.1-14.3-34.6
		c0-13.4,4.8-25,14.3-34.5c9.6-9.6,21.1-14.3,34.5-14.3c11.6,0,21.6,3.5,30.4,10.5c1.4,1.1,2.8,2.5,4.2,4c0.6,0.6,1,1.1,1.6,1.6
		l-6.1,6.1L455.1,331.4z M506.2,269c-6.9-5.4-15-8.1-24.2-8.1c-11,0-20.6,4-28.4,11.7c-7.9,7.9-11.9,17.4-11.9,28.6
		c0,9.2,2.7,17.3,8.1,24.2L506.2,269z"/>
	<path fill="#4C5C68" d="M647.7,325l6.1,5.4c-13.9,12.6-30.3,19-49.1,19c-20.2,0-37.3-7.1-51.6-21.4c-14.1-14.1-21.4-31.4-21.4-51.6
		c0-20.1,7.1-37.3,21.4-51.5c14.1-14.3,31.4-21.4,51.6-21.4c18.8,0,35.1,6.4,49.1,19l-6.1,5.7c-12.2-10.9-26.6-16.3-43-16.3
		c-17.8,0-33.1,6.4-45.7,19c-12.6,12.6-19,27.9-19,45.7c0,18,6.4,33.2,19,45.8s27.9,19,45.7,19C621.1,341.3,635.4,335.9,647.7,325z"
		/>
	<path fill="#4C5C68" d="M678.3,231.7c1.6,1.6,2.4,3.4,2.4,5.7s-0.8,4.1-2.4,5.7c-1.6,1.6-3.4,2.3-5.7,2.3s-4.1-0.7-5.7-2.3
		c-1.6-1.6-2.4-3.4-2.4-5.7s0.8-4.1,2.4-5.7c1.6-1.6,3.4-2.3,5.7-2.3S676.7,230.3,678.3,231.7z M676.7,260.4v87.4h-8.1v-87.4H676.7z
		"/>
	<path fill="#4C5C68" d="M696,260.4h8.1v16c1.7-2.4,3.5-4.7,5.8-6.8c7.1-7.1,14.3-10.7,21.6-11.2v8.8c-5.1,0.3-10.3,3.1-15.7,8.5
		c-7.6,7.5-11.6,16.5-11.9,27.2V348h-8.1v-87.5H696z"/>
	<path fill="#4C5C68" d="M814.5,326.7l8.5,3c-1.6,2.1-3.3,4.2-5.2,6.1c-9.6,9.6-21.1,14.3-34.6,14.3c-13.4,0-25-4.8-34.5-14.3
		c-9.6-9.6-14.3-21.1-14.3-34.6c0-13.4,4.8-25,14.3-34.5c9.6-9.6,21.1-14.3,34.5-14.3c13.6,0,25,4.8,34.6,14.3c2,2,3.7,4,5.2,6.1
		l-8.5,3.1c-0.8-1.1-1.8-2.1-2.8-3.3c-7.9-7.8-17.4-11.7-28.6-11.7c-11,0-20.6,4-28.4,11.7c-7.9,7.9-11.9,17.4-11.9,28.6
		s4,20.6,11.9,28.6c7.9,7.9,17.4,11.9,28.4,11.9c11.2,0,20.6-4,28.6-11.9C812.6,328.9,813.6,327.9,814.5,326.7z"/>
	<path fill="#4C5C68" d="M843.2,205.4v142.4h-8.1V205.4H843.2z"/>
	<path fill="#4C5C68" d="M877.4,331.4c7.5,6.9,16.5,10.3,26.9,10.3c11.2,0,20.6-4,28.6-11.9c1-1,2-2,2.8-3.1l8.5,3
		c-1.6,2.1-3.3,4.2-5.2,6.1c-9.6,9.6-21.1,14.3-34.6,14.3c-13.4,0-25-4.8-34.5-14.3c-9.6-9.6-14.3-21.1-14.3-34.6
		c0-13.4,4.8-25,14.3-34.5c9.6-9.6,21.1-14.3,34.5-14.3c11.6,0,21.6,3.5,30.4,10.5c1.4,1.1,2.8,2.5,4.2,4c0.6,0.6,1,1.1,1.6,1.6
		l-6.1,6.1L877.4,331.4z M928.5,269c-6.9-5.4-15-8.1-24.2-8.1c-11,0-20.6,4-28.4,11.7c-7.9,7.9-11.9,17.4-11.9,28.6
		c0,9.2,2.7,17.3,8.1,24.2L928.5,269z"/>
</g>
<g>
	<path fill="#1985A1" d="M375.6,383.2v32.4h-1.9v-32.4H365v-1.9h19.3v1.9H375.6z"/>
	<path fill="#1985A1" d="M425.4,386c3.4,3.4,5.2,7.6,5.2,12.5s-1.7,9-5.2,12.5c-3.4,3.4-7.6,5.2-12.5,5.2s-9-1.7-12.5-5.2
		c-3.4-3.4-5.2-7.6-5.2-12.5s1.7-9,5.2-12.5c3.4-3.4,7.6-5.2,12.5-5.2S422,382.5,425.4,386z M412.9,382.8c-4.3,0-8,1.5-11.1,4.6
		c-3.1,3.1-4.6,6.8-4.6,11.1s1.5,8,4.6,11.1c3.1,3.1,6.7,4.6,11.1,4.6c4.3,0,8-1.5,11.1-4.6c3.1-3.1,4.6-6.8,4.6-11.1
		s-1.5-8-4.6-11.1C421,384.3,417.3,382.8,412.9,382.8z"/>
	<path fill="#1985A1" d="M474.1,411.4c-3.3,3.1-7.2,4.7-11.7,4.7c-4.9,0-9-1.7-12.5-5.1s-5.1-7.6-5.1-12.5c0-4.9,1.7-9,5.1-12.4
		c3.4-3.4,7.6-5.2,12.5-5.2c4.5,0,8.5,1.5,11.8,4.6l-1.5,1.3c-3-2.6-6.4-3.9-10.4-3.9c-4.3,0-8,1.5-11,4.6c-3.1,3.1-4.6,6.7-4.6,11
		c0,4.3,1.5,8,4.6,11.1c3.1,3.1,6.7,4.6,11,4.6c3.7,0,7-1.1,9.8-3.4v-10.5h1.9V411.4z"/>
	<path fill="#1985A1" d="M506.1,381.3v1.9h-15.3v14.3h15.3v1.9h-15.3v14.3h15.3v1.9h-17.2v-34.4H506.1z"/>
	<path fill="#1985A1" d="M529.3,383.2v32.4h-1.9v-32.4h-8.7v-1.9H538v1.9H529.3z"/>
	<path fill="#1985A1" d="M553,400.3v15.4h-1.9v-34.4h1.9v17h14.4v-17h1.9v34.4h-1.9v-15.4H553z"/>
	<path fill="#1985A1" d="M601.8,381.3v1.9h-15.3v14.3h15.3v1.9h-15.3v14.3h15.3v1.9h-17.2v-34.4H601.8z"/>
	<path fill="#1985A1" d="M624.8,403.7c-0.2,0-0.4,0-0.6,0h-5.8v11.9h-1.9v-34.4h9c2.6,0.4,4.8,1.5,6.7,3.3c2.2,2.2,3.3,4.8,3.3,7.9
		c0,3.1-1.1,5.8-3.3,8c-1.5,1.5-3.3,2.5-5.2,3l7.9,12.2h-2.4L624.8,403.7z M618.4,383.3v18.5h5.8c2.5,0,4.7-0.9,6.5-2.7
		c1.8-1.8,2.7-4,2.7-6.6c0-2.6-0.9-4.7-2.7-6.6c-1.8-1.8-4-2.7-6.5-2.7H618.4z"/>
	<path fill="#1985A1" d="M675.1,381.3v34.4h-1.9v-34.4H675.1z"/>
	<path fill="#1985A1" d="M690.7,381.3h2.1l17.7,30.6v-30.6h1.9v34.4h-1.9l-17.9-30.9v30.9h-1.9V381.3z"/>
	<path fill="#1985A1" d="M779.2,410.2l1.5,1.3c-3.4,3.1-7.3,4.6-11.8,4.6c-4.9,0-9-1.7-12.5-5.1c-3.4-3.4-5.1-7.6-5.1-12.5
		c0-4.9,1.7-9,5.1-12.4c3.4-3.4,7.6-5.2,12.5-5.2c4.5,0,8.5,1.5,11.8,4.6l-1.5,1.3c-3-2.6-6.4-3.9-10.4-3.9c-4.3,0-8,1.5-11,4.6
		c-3.1,3.1-4.6,6.7-4.6,11c0,4.3,1.5,8,4.6,11.1c3.1,3.1,6.7,4.6,11,4.6C772.7,414.1,776.2,412.8,779.2,410.2z"/>
	<path fill="#1985A1" d="M796.7,400.3v15.4h-1.9v-34.4h1.9v17h14.4v-17h1.9v34.4h-1.9v-15.4H796.7z"/>
	<path fill="#1985A1" d="M836.7,403.7c-0.2,0-0.4,0-0.6,0h-5.8v11.9h-1.9v-34.4h9c2.6,0.4,4.8,1.5,6.7,3.3c2.2,2.2,3.3,4.8,3.3,7.9
		c0,3.1-1.1,5.8-3.3,8c-1.5,1.5-3.3,2.5-5.2,3l7.9,12.2h-2.4L836.7,403.7z M830.2,383.3v18.5h5.8c2.5,0,4.7-0.9,6.5-2.7
		c1.8-1.8,2.7-4,2.7-6.6c0-2.6-0.9-4.7-2.7-6.6c-1.8-1.8-4-2.7-6.5-2.7H830.2z"/>
	<path fill="#1985A1" d="M862.9,381.3v34.4h-1.9v-34.4H862.9z"/>
	<path fill="#1985A1" d="M887.1,396.6c-2.4-0.8-4.4-1.9-5.8-3.4c-1.4-1.4-2.1-3.1-2.1-5.2c0-2,0.7-3.7,2.1-5.1
		c1.4-1.4,3.1-2.1,5.2-2.1c2,0,3.7,0.7,5.2,2.1c0.8,0.8,1.3,1.6,1.6,2.6l-1.7,0.7c-0.3-0.7-0.7-1.3-1.3-1.9c-1-1-2.3-1.5-3.8-1.5
		c-1.5,0-2.7,0.5-3.8,1.6c-1,1-1.6,2.3-1.6,3.8c0,1.5,0.5,2.7,1.6,3.8c1,1,2.3,1.8,4,2.6c2.8,0.9,5.1,2.3,6.9,4.1c2,2,3,4.4,3,7.2
		c0,2.8-1,5.2-3,7.2c-2,2-4.4,3-7.2,3s-5.2-1-7.2-3c-1.6-1.6-2.5-3.4-2.9-5.5l1.8-0.7c0.2,1.9,1,3.5,2.4,4.9
		c1.6,1.6,3.6,2.4,5.8,2.4c2.3,0,4.2-0.8,5.9-2.4c1.6-1.6,2.4-3.6,2.4-5.9c0-2.3-0.8-4.2-2.4-5.8
		C890.9,398.6,889.2,397.5,887.1,396.6z"/>
	<path fill="#1985A1" d="M918.2,383.2v32.4h-1.9v-32.4h-8.7v-1.9h19.3v1.9H918.2z"/>
</g>
</svg>
