<?xml version="1.0" encoding="utf-8"?>
<!-- Generator: Adobe Illustrator 18.1.1, SVG Export Plug-In . SVG Version: 6.00 Build 0)  -->
<!DOCTYPE svg PUBLIC "-//W3C//DTD SVG 1.1//EN" "http://www.w3.org/Graphics/SVG/1.1/DTD/svg11.dtd">
<svg version="1.1" id="Layer_1" xmlns="http://www.w3.org/2000/svg" xmlns:xlink="http://www.w3.org/1999/xlink" x="0px" y="0px"
	 viewBox="0 0 678.8 279.3" enable-background="new 0 0 678.8 279.3" xml:space="preserve">
<text transform="matrix(1 0 0 1 724.9437 -353.2258)" fill="#4C5C68" font-family="'CaviarDreams'" font-size="76.2958">C</text>
<g>
	<text transform="matrix(1 0 0 1 875.4747 -353.2256)" fill="#4C5C68" font-family="'CaviarDreams'" font-size="76.2958">C</text>
</g>
<text transform="matrix(1 0 0 1 774.342 -363.6575)" fill="#4C5C68" font-family="'CaviarDreams'" font-size="47.857">lose</text>
<g>
	<text transform="matrix(1 0 0 1 925.1222 -363.657)" fill="#4C5C68" font-family="'CaviarDreams'" font-size="47.857">ircle</text>
</g>
<g>
	<circle fill="#DCDCDD" stroke="#DCDCDD" stroke-width="18.5164" stroke-miterlimit="10" cx="134" cy="139.2" r="115.1"/>
	<path fill="none" stroke="#1985A1" stroke-width="18.5164" stroke-miterlimit="10" d="M217.1,218.8c-20.9,21.9-50.5,35.5-83.2,35.5
		c-63.5,0-115.1-51.5-115.1-115.1S70.4,24.2,134,24.2c32.6,0,62,13.5,82.9,35.3"/>
</g>
<g>
	<path fill="#4C5C68" d="M160.4,171.5l4.3,3.8c-9.8,8.9-21.4,13.4-34.7,13.4c-14.3,0-26.4-5-36.5-15.1c-10-10-15.1-22.2-15.1-36.5
		c0-14.2,5-26.4,15.1-36.4c10-10.1,22.2-15.1,36.5-15.1c13.3,0,24.8,4.5,34.7,13.4l-4.3,3.9c-8.6-7.7-18.8-11.5-30.4-11.5
		c-12.6,0-23.4,4.5-32.3,13.4s-13.4,19.7-13.4,32.3c0,12.7,4.5,23.5,13.4,32.4c8.9,8.9,19.7,13.4,32.3,13.4
		C141.6,183,151.8,179.2,160.4,171.5z"/>
	<path fill="#4C5C68" d="M179.6,86.9v100.7H174V86.9H179.6z"/>
	<path fill="#4C5C68" d="M222.8,120.2c9.6,0,17.7,3.4,24.4,10.1c6.7,6.8,10.1,14.9,10.1,24.5c0,9.5-3.4,17.7-10.1,24.4
		c-6.7,6.8-14.9,10.1-24.4,10.1c-9.5,0-17.7-3.4-24.4-10.1c-6.8-6.8-10.1-14.9-10.1-24.4c0-9.6,3.4-17.7,10.1-24.5
		C205.2,123.6,213.3,120.2,222.8,120.2z M202.6,134.6c-5.6,5.6-8.4,12.3-8.4,20.2c0,7.9,2.8,14.6,8.4,20.2
		c5.6,5.6,12.3,8.3,20.2,8.3c7.9,0,14.6-2.8,20.2-8.3c5.6-5.6,8.4-12.3,8.4-20.2c0-7.9-2.8-14.6-8.4-20.2
		c-5.6-5.6-12.3-8.4-20.2-8.4C215,126.2,208.2,129,202.6,134.6z"/>
	<path fill="#4C5C68" d="M283,155.8c-4.8-2.6-8.2-4.8-10-6.7c-2.9-2.9-4.3-6.4-4.3-10.4c0-4.1,1.4-7.6,4.3-10.5
		c2.9-2.9,6.4-4.4,10.4-4.4c4.1,0,7.5,1.3,10.2,4c2.6,2.6,3.9,5.6,3.9,9v0.3l-4.9,2c-0.4-3.2-1.4-5.6-3-7.2
		c-1.6-1.6-3.6-2.4-6.2-2.4c-2.5,0-4.7,0.9-6.5,2.7c-1.8,1.8-2.7,4-2.7,6.5c0,2.5,0.9,4.7,2.7,6.5c1,1,3.3,2.6,6.7,4.8
		c5.4,2.9,9.2,5.5,11.4,7.8c3.6,3.6,5.3,7.9,5.3,12.9c0,5.1-1.8,9.5-5.3,13.1c-3.6,3.6-7.9,5.4-13,5.4c-5.1,0-9.4-1.8-13-5.4
		c-3.6-3.6-5.3-7.5-5.3-11.8l5.6-1.4c0,3.7,1.2,6.8,3.7,9.2c2.5,2.5,5.5,3.7,9,3.7c3.5,0,6.5-1.2,9-3.7c2.5-2.5,3.7-5.5,3.7-9.1
		c0-3.5-1.2-6.5-3.7-8.9C289.8,160.4,287.1,158.4,283,155.8z"/>
	<path fill="#4C5C68" d="M321.8,176c5.3,4.9,11.7,7.3,19,7.3c7.9,0,14.6-2.8,20.2-8.4c0.7-0.7,1.4-1.4,2-2.2l6,2.1
		c-1.1,1.5-2.3,3-3.7,4.3c-6.8,6.8-14.9,10.1-24.5,10.1c-9.5,0-17.7-3.4-24.4-10.1c-6.8-6.8-10.1-14.9-10.1-24.5
		c0-9.5,3.4-17.7,10.1-24.4c6.8-6.8,14.9-10.1,24.4-10.1c8.2,0,15.3,2.5,21.5,7.4c1,0.8,2,1.8,3,2.8c0.4,0.4,0.7,0.8,1.1,1.1
		l-4.3,4.3L321.8,176z M357.9,131.9c-4.9-3.8-10.6-5.7-17.1-5.7c-7.8,0-14.6,2.8-20.1,8.3c-5.6,5.6-8.4,12.3-8.4,20.2
		c0,6.5,1.9,12.2,5.7,17.1L357.9,131.9z"/>
	<path fill="#4C5C68" d="M458,171.5l4.3,3.8c-9.8,8.9-21.4,13.4-34.7,13.4c-14.3,0-26.4-5-36.5-15.1c-10-10-15.1-22.2-15.1-36.5
		c0-14.2,5-26.4,15.1-36.4c10-10.1,22.2-15.1,36.5-15.1c13.3,0,24.8,4.5,34.7,13.4L458,103c-8.6-7.7-18.8-11.5-30.4-11.5
		c-12.6,0-23.4,4.5-32.3,13.4s-13.4,19.7-13.4,32.3c0,12.7,4.5,23.5,13.4,32.4c8.9,8.9,19.7,13.4,32.3,13.4
		C439.2,183,449.3,179.2,458,171.5z"/>
	<path fill="#4C5C68" d="M479.6,105.5c1.1,1.1,1.7,2.4,1.7,4c0,1.6-0.6,2.9-1.7,4c-1.1,1.1-2.4,1.6-4,1.6c-1.6,0-2.9-0.5-4-1.6
		c-1.1-1.1-1.7-2.4-1.7-4c0-1.6,0.6-2.9,1.7-4c1.1-1.1,2.4-1.6,4-1.6C477.2,103.9,478.5,104.5,479.6,105.5z M478.5,125.8v61.8h-5.7
		v-61.8H478.5z"/>
	<path fill="#4C5C68" d="M492.1,125.8h5.7v11.3c1.2-1.7,2.5-3.3,4.1-4.8c5-5,10.1-7.6,15.3-7.9v6.2c-3.6,0.2-7.3,2.2-11.1,6
		c-5.4,5.3-8.2,11.7-8.4,19.2v31.9h-5.7V125.8z"/>
	<path fill="#4C5C68" d="M575.9,172.7l6,2.1c-1.1,1.5-2.3,3-3.7,4.3c-6.8,6.8-14.9,10.1-24.5,10.1c-9.5,0-17.7-3.4-24.4-10.1
		c-6.8-6.8-10.1-14.9-10.1-24.5c0-9.5,3.4-17.7,10.1-24.4c6.8-6.8,14.9-10.1,24.4-10.1c9.6,0,17.7,3.4,24.5,10.1
		c1.4,1.4,2.6,2.8,3.7,4.3l-6,2.2c-0.6-0.8-1.3-1.5-2-2.3c-5.6-5.5-12.3-8.3-20.2-8.3c-7.8,0-14.6,2.8-20.1,8.3
		c-5.6,5.6-8.4,12.3-8.4,20.2c0,7.9,2.8,14.6,8.4,20.2c5.6,5.6,12.3,8.4,20.1,8.4c7.9,0,14.6-2.8,20.2-8.4
		C574.6,174.2,575.3,173.5,575.9,172.7z"/>
	<path fill="#4C5C68" d="M596.2,86.9v100.7h-5.7V86.9H596.2z"/>
	<path fill="#4C5C68" d="M620.4,176c5.3,4.9,11.7,7.3,19,7.3c7.9,0,14.6-2.8,20.2-8.4c0.7-0.7,1.4-1.4,2-2.2l6,2.1
		c-1.1,1.5-2.3,3-3.7,4.3c-6.8,6.8-14.9,10.1-24.5,10.1c-9.5,0-17.7-3.4-24.4-10.1c-6.8-6.8-10.1-14.9-10.1-24.5
		c0-9.5,3.4-17.7,10.1-24.4c6.8-6.8,14.9-10.1,24.4-10.1c8.2,0,15.3,2.5,21.5,7.4c1,0.8,2,1.8,3,2.8c0.4,0.4,0.7,0.8,1.1,1.1
		l-4.3,4.3L620.4,176z M656.5,131.9c-4.9-3.8-10.6-5.7-17.1-5.7c-7.8,0-14.6,2.8-20.1,8.3c-5.6,5.6-8.4,12.3-8.4,20.2
		c0,6.5,1.9,12.2,5.7,17.1L656.5,131.9z"/>
</g>
</svg>
